HIERARCHY
ROOT root
{
	OFFSET 0.000000 0.000000 0.000000
	CHANNELS 6 Xposition Yposition Zposition Zrotation Yrotation Xrotation
	JOINT lhip
	{
		OFFSET 0.058581 -0.082280 -0.017664
		CHANNELS 3 Zrotation Yrotation Xrotation
		JOINT lknee
		{
			OFFSET 0.043451 -0.386469 0.008037
			CHANNELS 3 Zrotation Yrotation Xrotation
			JOINT lankle
			{
				OFFSET -0.014790 -0.426874 -0.037428
				CHANNELS 3 Zrotation Yrotation Xrotation
				JOINT ltoe
				{
					OFFSET 0.041054 -0.060286 0.122042
					CHANNELS 3 Zrotation Yrotation Xrotation
					End Site
					{
						OFFSET 0.000000 0.000000 0.000000
					}
				}
			}
		}
	}
	JOINT rhip
	{
		OFFSET -0.060310 -0.090513 -0.013543
		CHANNELS 3 Zrotation Yrotation Xrotation
		JOINT rknee
		{
			OFFSET -0.043257 -0.383688 -0.004843
			CHANNELS 3 Zrotation Yrotation Xrotation
			JOINT rankle
			{
				OFFSET 0.019056 -0.420046 -0.034562
				CHANNELS 3 Zrotation Yrotation Xrotation
				JOINT rtoe
				{
					OFFSET -0.034840 -0.062106 0.130323
					CHANNELS 3 Zrotation Yrotation Xrotation
					End Site
					{
						OFFSET 0.000000 0.000000 0.000000
					}
				}
			}
		}
	}
	JOINT lowerback
	{
		OFFSET 0.004439 0.124404 -0.038385
		CHANNELS 3 Zrotation Yrotation Xrotation
		JOINT upperback
		{
			OFFSET 0.004488 0.137956 0.026820
			CHANNELS 3 Zrotation Yrotation Xrotation
			JOINT chest
			{
				OFFSET -0.002265 0.056032 0.002855
				CHANNELS 3 Zrotation Yrotation Xrotation
				JOINT lowerneck
				{
					OFFSET -0.013390 0.211636 -0.033468
					CHANNELS 3 Zrotation Yrotation Xrotation
					JOINT upperneck
					{
						OFFSET 0.010113 0.088937 0.050410
						CHANNELS 3 Zrotation Yrotation Xrotation
						End Site
						{
							OFFSET 0.000000 0.000000 0.000000
						}
					}
				}
				JOINT lclavicle
				{
					OFFSET 0.071702 0.114000 -0.018898
					CHANNELS 3 Zrotation Yrotation Xrotation
					JOINT lshoulder
					{
						OFFSET 0.122921 0.045205 -0.019046
						CHANNELS 3 Zrotation Yrotation Xrotation
						JOINT lelbow
						{
							OFFSET 0.255332 -0.015649 -0.022946
							CHANNELS 3 Zrotation Yrotation Xrotation
							JOINT lwrist
							{
								OFFSET 0.265709 0.012698 -0.007375
								CHANNELS 3 Zrotation Yrotation Xrotation
								End Site
								{
									OFFSET 0.000000 0.000000 0.000000
								}
							}
						}
					}
				}
				JOINT rclavicle
				{
					OFFSET -0.082954 0.112472 -0.023707
					CHANNELS 3 Zrotation Yrotation Xrotation
					JOINT rshoulder
					{
						OFFSET -0.113228 0.046853 -0.008472
						CHANNELS 3 Zrotation Yrotation Xrotation
						JOINT relbow
						{
							OFFSET -0.260127 -0.014369 -0.031269
							CHANNELS 3 Zrotation Yrotation Xrotation
							JOINT rwrist
							{
								OFFSET -0.269108 0.006794 -0.006027
								CHANNELS 3 Zrotation Yrotation Xrotation
								End Site
								{
									OFFSET 0.000000 0.000000 0.000000
								}
							}
						}
					}
				}
			}
		}
	}
}
MOTION
Frames: 15
Frame Time: 0.033333
1.705009 0.729774 0.994252 -89.299591 3.901850 87.892016 3.188707 0.643287 6.790867 -2.177477 -12.703714 0.306214 3.804189 7.776276 -16.378752 0.000000 -0.000000 0.000000 2.574080 -1.349566 2.933677 2.708228 0.238201 6.093257 3.362647 -5.880683 -15.120997 0.000000 -0.000000 0.000000 -1.108198 0.564926 5.741231 1.732788 -2.838577 0.810749 1.358350 -2.202117 4.238867 3.416995 0.395709 -8.621207 3.440400 -5.938208 -3.280608 -27.977922 4.207144 0.524628 -58.953845 -5.816820 8.389425 8.784940 -25.401364 4.405081 -2.967316 -2.422275 -7.785087 26.483698 -1.610810 -2.518795 59.398952 0.923618 11.979560 -13.848331 24.177710 -3.940004 5.897813 -0.500270 -7.510565 
1.704197 0.729819 0.994190 -89.311552 3.931632 87.841584 3.257447 0.673411 6.954611 -2.250045 -12.766326 0.306596 3.990625 7.859028 -16.455191 0.000000 -0.000000 0.000000 2.651133 -1.500629 2.971844 2.654055 0.184119 6.227791 3.266802 -5.712326 -15.213206 0.000000 -0.000000 0.000000 -1.036608 0.570689 5.867723 1.715977 -2.797490 0.761124 1.338288 -2.227270 4.311114 3.485925 0.514200 -8.912052 3.363622 -6.008214 -3.245985 -27.754694 4.201865 0.248249 -59.095449 -5.735073 8.469456 8.615531 -25.298213 5.045098 -3.153270 -2.080933 -7.464459 26.358353 -1.742542 -2.679141 59.588160 0.891441 11.950214 -13.778632 24.143256 -3.757234 5.841858 -0.602084 -7.468597 
1.704569 0.730623 0.994787 -89.526259 3.858240 87.979872 3.351637 0.579902 6.822403 -2.480200 -12.770939 0.358802 4.358572 8.157635 -16.441339 0.000000 -0.000000 0.000000 2.347805 -1.591903 2.790615 3.037965 0.927762 7.171798 3.445658 -5.818827 -12.335517 0.000000 -0.000000 0.000000 -1.031214 0.532627 5.816631 1.644379 -2.749846 0.808602 1.282882 -2.184775 4.291884 3.258383 0.345889 -8.864364 3.517780 -5.661876 -3.434798 -27.868885 4.216384 0.356509 -58.891833 -5.796642 8.110646 7.977740 -24.948583 5.062681 -2.892420 -1.846877 -7.591123 26.405127 -1.777176 -2.532428 59.484196 1.024601 11.897861 -13.539654 24.058033 -3.692475 5.914754 -0.610396 -7.370794 
1.703427 0.730905 0.994713 -89.508386 3.846416 88.027517 3.325148 0.599682 6.805499 -2.432176 -12.773351 0.417100 4.420025 8.210873 -16.539135 0.000000 -0.000000 0.000000 2.358693 -1.686567 2.866977 3.029575 1.086681 7.115321 3.573109 -5.895359 -12.308537 0.000000 -0.000000 0.000000 -1.048776 0.526659 5.803219 1.636065 -2.737677 0.826374 1.249258 -2.323174 4.408957 3.351590 0.640524 -9.226973 3.385796 -5.604333 -3.004098 -28.107436 4.408069 0.455184 -58.642058 -5.704789 8.102577 8.086140 -25.026070 4.945445 -2.895276 -1.764831 -7.465598 26.714195 -1.921471 -2.702078 59.211544 0.934067 12.014266 -13.458838 24.109247 -3.784411 5.857929 -0.608152 -7.211010 
1.703273 0.731082 0.994685 -89.531159 3.797245 88.034831 3.310343 0.675921 6.795590 -2.456484 -12.819823 0.434311 4.337411 8.128462 -16.639889 0.000000 -0.000000 0.000000 2.351520 -1.739129 2.831847 2.933555 1.142460 7.203237 3.682076 -5.817068 -12.333581 0.000000 -0.000000 0.000000 -1.117149 0.540521 5.819088 1.642478 -2.726969 0.942710 1.248003 -2.291999 4.447261 3.429167 0.676308 -9.408399 3.416390 -5.668431 -2.991402 -28.155960 4.395337 0.414935 -58.535318 -5.693980 8.134402 8.076488 -24.973396 4.865753 -2.541672 -2.006078 -7.203117 26.780897 -1.924541 -2.765973 59.181847 0.882155 11.973862 -13.424740 24.075973 -3.996566 5.719692 -0.514715 -7.305290 
1.702907 0.731311 0.994497 -89.530876 3.760448 88.004297 3.306083 0.742148 6.817380 -2.486252 -12.831310 0.493816 4.339991 8.164137 -16.610666 0.000000 -0.000000 0.000000 2.228181 -1.806993 2.913271 3.056491 1.180153 7.160842 3.688752 -5.708201 -12.316490 0.000000 -0.000000 0.000000 -1.197291 0.489228 5.876219 1.644972 -2.823908 1.138781 1.256671 -2.186761 4.465921 3.415559 0.630415 -9.299183 3.463681 -5.786186 -3.086157 -28.036926 4.468980 0.300464 -58.675334 -5.638927 8.104949 8.097306 -24.865149 4.928146 -2.746456 -1.837172 -7.351980 26.801135 -1.900023 -2.651228 59.224024 0.981829 11.926476 -13.431026 24.006831 -4.052934 5.748213 -0.550762 -7.325374 
1.702459 0.731275 0.994337 -89.551145 3.788405 88.080962 3.336466 0.742236 6.760858 -2.498649 -12.809143 0.490965 4.388506 8.118050 -16.585427 0.000000 -0.000000 0.000000 2.255000 -1.790630 2.825257 3.078291 1.069604 7.183377 3.567171 -5.658435 -12.351676 0.000000 -0.000000 0.000000 -1.154523 0.597189 5.642382 1.649590 -2.791568 1.445495 1.289151 -2.174794 4.471219 3.312310 0.678295 -9.272650 3.551632 -5.584559 -3.346245 -28.032851 4.397572 0.442546 -58.756856 -5.681435 8.030094 8.112299 -24.975237 4.791800 -2.782279 -1.610789 -7.543041 26.744612 -1.910311 -2.497455 59.283537 1.043104 11.738395 -13.468866 23.986253 -4.025407 5.823447 -0.568658 -7.303416 
1.701961 0.731305 0.994438 -89.487444 3.817857 88.205017 3.376564 0.769975 6.620111 -2.516787 -12.795671 0.553450 4.340002 8.116464 -16.602145 0.000000 -0.000000 0.000000 2.264413 -1.858461 2.785361 3.172648 1.024853 7.054357 3.589389 -5.724277 -12.260332 0.000000 -0.000000 0.000000 -1.087935 0.620868 5.872846 1.678238 -2.772860 1.164108 1.299784 -2.246864 4.373974 3.419394 0.747697 -9.355385 3.556736 -5.547500 -3.216640 -28.077733 4.677425 0.407053 -58.716701 -5.540038 8.003808 7.889792 -25.218731 4.883373 -2.821880 -1.588010 -7.648889 26.698138 -2.159838 -2.689396 59.271008 0.798348 11.804356 -13.254545 23.952796 -3.835641 5.769886 -0.648516 -7.172403 
1.701631 0.731337 0.994460 -89.449359 3.836640 88.277217 3.405552 0.713421 6.555592 -2.519699 -12.838789 0.566501 4.365820 8.133215 -16.644552 0.000000 -0.000000 0.000000 2.295901 -1.838608 2.768366 3.191266 1.038789 6.962182 3.510771 -5.795202 -12.174059 0.000000 -0.000000 0.000000 -1.028959 0.626768 5.974873 1.673739 -2.728755 1.070398 1.274308 -2.228245 4.371406 3.368008 0.893008 -9.364922 3.530517 -5.455227 -3.099309 -28.048271 4.828481 0.309444 -58.818647 -5.542135 8.065172 7.915936 -25.367262 4.897990 -2.648370 -1.705095 -7.818491 26.712382 -2.321453 -2.795249 59.358048 0.751090 11.896600 -13.178073 23.666670 -3.723992 5.657141 -0.574258 -7.236193 
1.701340 0.731401 0.994569 -89.490783 3.824888 88.371717 3.386617 0.628575 6.503559 -2.492995 -12.820082 0.518155 4.367763 8.121447 -16.618028 0.000000 -0.000000 0.000000 2.282407 -1.767544 2.711791 3.216433 1.010275 6.958575 3.522347 -5.815066 -12.218474 0.000000 -0.000000 0.000000 -0.969501 0.684129 5.884017 1.651767 -2.641359 1.165545 1.262250 -2.198328 4.407773 3.423332 0.948875 -9.457011 3.605567 -5.491226 -3.003408 -27.988407 4.720963 0.334033 -58.917443 -5.657701 8.083973 8.014131 -25.340454 4.698317 -2.646523 -1.732710 -8.038489 26.647427 -2.224514 -2.578972 59.443474 0.730669 11.949428 -13.125235 23.633472 -3.700033 5.727346 -0.627926 -7.372273 
1.701038 0.731357 0.994608 -89.470628 3.789015 88.447060 3.339760 0.612755 6.440122 -2.504182 -12.758898 0.544307 4.263784 8.140514 -16.532862 0.000000 -0.000000 0.000000 2.232844 -1.692597 2.677200 3.241012 0.899855 6.902799 3.672318 -5.889421 -12.114294 0.000000 -0.000000 0.000000 -0.976391 0.674631 5.833566 1.640158 -2.593055 1.203204 1.241398 -2.134309 4.525640 3.574969 0.885984 -9.741616 3.657112 -5.716107 -2.678848 -28.004381 4.694756 0.198456 -58.956180 -5.818099 8.190435 8.055946 -25.184158 4.466487 -2.539011 -1.838204 -7.992026 26.742522 -2.132625 -2.610352 59.395030 0.678977 12.077019 -13.094904 23.475323 -3.918399 5.699984 -0.508952 -7.552701 
1.700564 0.731539 0.994457 -89.433502 3.809000 88.440903 3.386618 0.579868 6.546538 -2.514027 -12.813870 0.424743 4.383043 8.177341 -16.600278 0.000000 -0.000000 0.000000 2.241729 -1.775289 2.771587 3.253011 0.896956 6.862143 3.550943 -5.828012 -12.177522 0.000000 -0.000000 0.000000 -0.965211 0.689867 5.813256 1.653074 -2.604063 1.295792 1.305875 -2.128226 4.477834 3.347745 1.120994 -9.534251 3.653222 -5.321828 -2.880750 -27.984738 4.517719 0.291647 -59.040785 -5.827165 8.116791 8.108141 -25.116646 4.444949 -2.756139 -1.787942 -8.097055 26.670099 -2.045113 -2.345894 59.399290 0.636249 12.003806 -13.193577 23.620801 -3.813799 5.839452 -0.558169 -7.559502 
1.700314 0.731563 0.994335 -89.400905 3.813921 88.473690 3.402250 0.615079 6.545745 -2.518335 -12.766853 0.387700 4.430430 8.100712 -16.587442 0.000000 -0.000000 0.000000 2.222072 -1.785671 2.803201 3.282978 0.867465 6.737053 3.622212 -5.821452 -12.071910 0.000000 -0.000000 0.000000 -0.921036 0.726272 5.895616 1.677508 -2.592422 1.274434 1.315051 -2.158369 4.321101 3.213579 1.265685 -9.348743 3.686460 -5.129705 -2.952253 -27.971176 4.326425 0.386777 -59.076945 -5.857396 8.065859 8.119312 -24.924550 4.471621 -2.813191 -1.773075 -8.093795 26.656649 -2.069551 -2.222417 59.436309 0.706854 11.891800 -13.232574 23.607638 -3.900459 5.835153 -0.529843 -7.596810 
1.699603 0.731679 0.994217 -89.339589 3.802370 88.495378 3.409352 0.626323 6.580455 -2.498089 -12.871656 0.375065 4.399516 8.070548 -16.594121 0.000000 -0.000000 0.000000 2.218440 -1.823290 2.956456 3.275403 0.903924 6.524494 3.626424 -5.882139 -12.005922 0.000000 -0.000000 0.000000 -0.943386 0.698774 5.817814 1.694227 -2.630222 1.317140 1.341620 -2.156243 4.376531 3.215522 1.332850 -9.463163 3.716816 -5.046266 -3.075380 -28.042602 4.323708 0.349349 -58.995587 -5.915181 8.028763 8.006102 -24.812835 4.500557 -2.833976 -1.983649 -8.106343 26.665042 -2.136819 -2.334633 59.442015 0.732665 11.904372 -13.255730 23.626445 -3.731427 5.783743 -0.534991 -7.459709 
1.699068 0.731757 0.994227 -89.362238 3.868879 88.513530 3.482318 0.616252 6.719248 -2.459992 -12.928435 0.177184 4.256940 8.141419 -16.566655 0.000000 -0.000000 0.000000 2.282136 -1.819083 3.022976 3.316074 0.933770 6.484051 3.572898 -5.941826 -11.994542 0.000000 -0.000000 0.000000 -0.895810 0.658298 5.606077 1.733749 -2.638514 1.527745 1.333426 -2.112838 4.478329 3.411048 1.304950 -9.741351 3.735747 -5.284708 -2.867503 -28.098194 4.266330 0.190283 -58.951733 -5.975157 8.102957 8.015324 -24.564341 4.414290 -2.666216 -1.841901 -7.815095 26.719171 -2.002779 -2.429964 59.349283 0.851302 11.950292 -13.236600 23.512619 -3.902090 5.704247 -0.526908 -7.410891 
